# xmcd
#
# Track frame offsets: 
#        150
#        14976
#        36385
#        46753
#        58277
#        73098
#        82009
#        97241
#        101481
#        131889
#        138844
#        167043
#        183676
#        189981
#        203989
#        222747
#        240080
#        249929
#        258539
#        270164
#
# Disc length: 3848 seconds
#
# Revision: 0
# Processed by: cddbd v1.5.2PL0 Copyright (c) Steve Scherf et al.
# Submitted via: ExactAudioCopy v1.0b1
#
DISCID=320f0614
DTITLE=Dominguinhos - 20 Super Sucessos
DYEAR=2007
DGENRE=Country
TTITLE0=Eu Só Quero Um Xodó
TTITLE1=Forró No Escuro
TTITLE2=Respeita Januario
TTITLE3=Sabiá
TTITLE4=Sete Meninas
TTITLE5=Riacho Do Navio
TTITLE6=Petrolina Juazeiro
TTITLE7=Doidinho Doidinho
TTITLE8=Lamento Sertanejo
TTITLE9=Nem Se Despediu De Mim
TTITLE10=De Volta Pro Aconchego
TTITLE11=Onde Esta Voce
TTITLE12=Numa Sala De Reboco
TTITLE13=Casa Tudo Azul
TTITLE14=Tenho Sede
TTITLE15=Pau De Arara
TTITLE16=A Vida Do Viajante
TTITLE17=Isso Aqui Ta Bom Demais
TTITLE18=Pedras Que Cantam
TTITLE19=Asa Branca
EXTD=
EXTT0=
EXTT1=
EXTT2=
EXTT3=
EXTT4=
EXTT5=
EXTT6=
EXTT7=
EXTT8=
EXTT9=
EXTT10=
EXTT11=
EXTT12=
EXTT13=
EXTT14=
EXTT15=
EXTT16=
EXTT17=
EXTT18=
EXTT19=
PLAYORDER=
